<svg width="24" height="24" viewBox="0 0 24 24" fill="none" xmlns="http://www.w3.org/2000/svg">
  <!-- Syringe body -->
  <rect x="8" y="10" width="12" height="4" rx="1" stroke="#2563EB" stroke-width="2"/>
  <rect x="4" y="11" width="4" height="2" fill="#2563EB" fill-opacity="0.3"/>

  <!-- Plunger -->
  <line x1="3" y1="12" x2="8" y2="12" stroke="#2563EB" stroke-width="2" stroke-linecap="round"/>
  <circle cx="3" cy="12" r="1.5" fill="#2563EB"/>

  <!-- Needle -->
  <path d="M20 10L22 8L20 6" stroke="#6B7280" stroke-width="2" stroke-linecap="round" stroke-linejoin="round"/>

  <!-- Measurement markings -->
  <line x1="10" y1="10" x2="10" y2="14" stroke="#2563EB" stroke-width="1" opacity="0.5"/>
  <line x1="12" y1="10" x2="12" y2="14" stroke="#2563EB" stroke-width="1" opacity="0.5"/>
  <line x1="14" y1="10" x2="14" y2="14" stroke="#2563EB" stroke-width="1" opacity="0.5"/>
  <line x1="16" y1="10" x2="16" y2="14" stroke="#2563EB" stroke-width="1" opacity="0.5"/>
  <line x1="18" y1="10" x2="18" y2="14" stroke="#2563EB" stroke-width="1" opacity="0.5"/>

  <!-- Smart/AI indicator (sparkle) -->
  <g transform="translate(16, 3)">
    <path d="M0 2L1 1L2 2L1 3Z" fill="#10B981"/>
    <path d="M2 0L3 1L2 2L1 1Z" fill="#10B981" opacity="0.7"/>
  </g>
</svg>
