<svg width="24" height="24" viewBox="0 0 24 24" fill="none" xmlns="http://www.w3.org/2000/svg">
  <!-- Open book -->
  <path d="M4 19.5C4 18.12 5.12 17 6.5 17H20" stroke="#2563EB" stroke-width="2" stroke-linecap="round"/>
  <path d="M6.5 2H20V22H6.5C5.12 22 4 20.88 4 19.5V4.5C4 3.12 5.12 2 6.5 2Z" stroke="#2563EB" stroke-width="2"/>
  <path d="M12 2V22" stroke="#2563EB" stroke-width="1" opacity="0.3"/>

  <!-- Molecule nodes -->
  <circle cx="8" cy="8" r="1.5" fill="#2563EB"/>
  <circle cx="12" cy="6" r="1.5" fill="#2563EB"/>
  <circle cx="16" cy="8" r="1.5" fill="#2563EB"/>
  <circle cx="10" cy="11" r="1.5" fill="#2563EB"/>
  <circle cx="14" cy="11" r="1.5" fill="#2563EB"/>

  <!-- Connecting lines -->
  <line x1="8" y1="8" x2="12" y2="6" stroke="#2563EB" stroke-width="1" opacity="0.5"/>
  <line x1="12" y1="6" x2="16" y2="8" stroke="#2563EB" stroke-width="1" opacity="0.5"/>
  <line x1="8" y1="8" x2="10" y2="11" stroke="#2563EB" stroke-width="1" opacity="0.5"/>
  <line x1="16" y1="8" x2="14" y2="11" stroke="#2563EB" stroke-width="1" opacity="0.5"/>
</svg>
