<svg width="24" height="24" viewBox="0 0 24 24" fill="none" xmlns="http://www.w3.org/2000/svg">
  <!-- Chart axes -->
  <line x1="4" y1="20" x2="20" y2="20" stroke="#6B7280" stroke-width="2" stroke-linecap="round"/>
  <line x1="4" y1="4" x2="4" y2="20" stroke="#6B7280" stroke-width="2" stroke-linecap="round"/>

  <!-- Declining supply line -->
  <path d="M6 8L10 10L14 14L18 18"
        stroke="#2563EB"
        stroke-width="2.5"
        stroke-linecap="round"
        stroke-linejoin="round"/>

  <!-- Alert bell (reorder notification) -->
  <g transform="translate(16, 2)">
    <path d="M1 4C1 2.9 1.9 2 3 2C4.1 2 5 2.9 5 4C5 5.1 4.1 6 3 6L1 6C1 5.1 1 4.9 1 4Z"
          fill="#F59E0B"/>
    <path d="M2 6V6.5C2 6.8 2.2 7 2.5 7H3.5C3.8 7 4 6.8 4 6.5V6"
          fill="#F59E0B"/>
    <circle cx="3" cy="1" r="0.8" fill="#EF4444"/>
  </g>

  <!-- Data points -->
  <circle cx="6" cy="8" r="2" fill="#2563EB"/>
  <circle cx="10" cy="10" r="2" fill="#2563EB"/>
  <circle cx="14" cy="14" r="2" fill="#2563EB"/>
  <circle cx="18" cy="18" r="2" fill="#F59E0B"/>
</svg>
